<?xml version="1.0" encoding="UTF-8" standalone="no"?>
<!-- Created with Inkscape (http://www.inkscape.org/) -->

<svg
   xmlns:dc="http://purl.org/dc/elements/1.1/"
   xmlns:cc="http://creativecommons.org/ns#"
   xmlns:rdf="http://www.w3.org/1999/02/22-rdf-syntax-ns#"
   xmlns:svg="http://www.w3.org/2000/svg"
   xmlns="http://www.w3.org/2000/svg"
   xmlns:sodipodi="http://sodipodi.sourceforge.net/DTD/sodipodi-0.dtd"
   xmlns:inkscape="http://www.inkscape.org/namespaces/inkscape"
   version="1.1"
   width="230.74556"
   height="259.3399"
   id="svg2"
   inkscape:version="0.48.5 r10040"
   sodipodi:docname="smarterlithlogo.svg"
   inkscape:export-filename="/home/ezequiel/smarterlithlogo2.png"
   inkscape:export-xdpi="90"
   inkscape:export-ydpi="90">
  <sodipodi:namedview
     pagecolor="#ffffff"
     bordercolor="#666666"
     borderopacity="1"
     objecttolerance="10"
     gridtolerance="10"
     guidetolerance="10"
     inkscape:pageopacity="0"
     inkscape:pageshadow="2"
     inkscape:window-width="1440"
     inkscape:window-height="834"
     id="namedview3005"
     showgrid="false"
     inkscape:zoom="1.9638853"
     inkscape:cx="-99.819854"
     inkscape:cy="115.17667"
     inkscape:window-x="0"
     inkscape:window-y="27"
     inkscape:window-maximized="1"
     inkscape:current-layer="layer1"
     fit-margin-top="0"
     fit-margin-left="0"
     fit-margin-right="0"
     fit-margin-bottom="0" />
  <defs
     id="defs4" />
  <metadata
     id="metadata7">
    <rdf:RDF>
      <cc:Work
         rdf:about="">
        <dc:format>image/svg+xml</dc:format>
        <dc:type
           rdf:resource="http://purl.org/dc/dcmitype/StillImage" />
        <dc:title />
      </cc:Work>
    </rdf:RDF>
  </metadata>
  <g
     transform="translate(-27.18786,-10.07769)"
     id="layer1">
    <path
       d="m 263.07262,401.0186 c -2.4034,-4.16281 -2.4034,-116.00715 0,-120.16995 2.4034,-4.16281 99.26344,-60.08498 104.07024,-60.08498 4.80679,0 101.66683,55.92217 104.07023,60.08498 2.40339,4.16281 2.40339,116.00714 -1e-5,120.16995 -2.4034,4.16281 -99.26343,60.08498 -104.07023,60.08498 -4.8068,0 -101.66683,-55.92217 -104.07023,-60.08498 z"
       transform="translate(-224.58221,-201.18598)"
       id="path3881"
       style="fill:none;fill-opacity:0;stroke:#ff0056;stroke-width:19;stroke-miterlimit:4;stroke-opacity:1;stroke-dasharray:none"
       inkscape:connector-curvature="0" />
    <path
       style="fill-opacity:1;stroke:none;fill:#ff0056"
       d="m 142.95072,37.844216 -89.875001,51.03125 89.875001,45.968754 87.75,-46.687504 -87.75,-50.3125 z m -0.5625,20.96875 c 3.4315,5.4e-5 6.65965,0.250708 9.6875,0.71875 3.02778,0.468148 5.81813,1.157611 8.375,2.09375 l 0,8.15625 c -2.62415,-1.24821 -5.33033,-2.188328 -8.15625,-2.8125 -2.826,-0.624081 -5.75346,-0.937454 -8.78125,-0.9375 -4.60904,4.6e-5 -8.08494,0.658129 -10.40625,1.96875 -2.2877,1.31071 -3.43751,3.284957 -3.4375,5.90625 -1e-5,1.997244 0.82026,3.56415 2.46875,4.71875 1.64846,1.123462 4.9584,2.188972 9.9375,3.21875 l 3.1875,0.65625 c 6.59388,1.310696 11.27253,3.159637 14.03125,5.5625 2.79227,2.371705 4.18745,5.724748 4.1875,10 -5e-5,4.868204 -2.07839,8.691474 -6.25,11.531254 -4.13806,2.83978 -9.85827,4.28125 -17.125,4.28125 -3.02784,0 -6.17181,-0.28204 -9.46875,-0.84375 -3.26333,-0.53051 -6.71038,-1.34528 -10.34375,-2.4375 l 0,-8.90625 c 3.43152,1.65394 6.79439,2.90743 10.125,3.75 3.33058,0.81137 6.64291,1.21875 9.90625,1.21875 4.37349,0 7.73875,-0.68942 10.09375,-2.0625 2.35493,-1.40428 3.53121,-3.37853 3.53125,-5.906254 -4e-5,-2.340461 -0.84677,-4.126728 -2.5625,-5.375 -1.68216,-1.248234 -5.40343,-2.439093 -11.15625,-3.59375 l -3.25,-0.71875 c -5.75287,-1.123404 -9.91194,-2.815703 -12.46875,-5.125 -2.55683,-2.340446 -3.81251,-5.536889 -3.8125,-9.59375 -1e-5,-4.930562 1.88829,-8.753706 5.65625,-11.4375 3.76794,-2.683695 9.10089,-4.031196 16.03125,-4.03125 z"
       id="rect3779"
       inkscape:connector-curvature="0" />
    <path
       style="fill:#ff0056;fill-opacity:1;stroke:none;stroke-width:0;stroke-miterlimit:4;stroke-opacity:1"
       d="m 232.33777,191.07747 -86.1508,50.80573 0.38893,-98.56217 85.38381,-45.86605 z"
       id="rect3779-6"
       inkscape:connector-curvature="0"
       sodipodi:nodetypes="ccccc" />
    <path
       style="fill:#ff0056;fill-opacity:1;stroke:none;stroke-width:0;stroke-miterlimit:4;stroke-opacity:1"
       d="m 52.306876,191.1322 87.951064,50.80572 -0.0289,-98.56217 -87.544123,-44.78588 z"
       id="rect3779-6-7"
       inkscape:connector-curvature="0"
       sodipodi:nodetypes="ccccc" />
  </g>
</svg>
